<?xml version="1.0"?>
<svg xmlns="http://www.w3.org/2000/svg" xmlns:xlink="http://www.w3.org/1999/xlink" version="1.1" id="Capa_1" x="0px" y="0px" viewBox="0 0 53 53" style="enable-background:new 0 0 53 53;" xml:space="preserve" width="512px" height="512px"><g><g>
	<path d="M34,20c-0.256,0-0.512-0.098-0.707-0.293c-0.391-0.391-0.391-1.023,0-1.414l18-18   c0.391-0.391,1.023-0.391,1.414,0s0.391,1.023,0,1.414l-18,18C34.512,19.902,34.256,20,34,20z" data-original="#26B99A" class="active-path" data-old_color="#111111" fill="#101010"/>
	<path d="M1,53c-0.256,0-0.512-0.098-0.707-0.293c-0.391-0.391-0.391-1.023,0-1.414l18-18   c0.391-0.391,1.023-0.391,1.414,0s0.391,1.023,0,1.414l-18,18C1.512,52.902,1.256,53,1,53z" data-original="#26B99A" class="active-path" data-old_color="#111111" fill="#101010"/>
	<path d="M52,53c-0.256,0-0.512-0.098-0.707-0.293l-18-18c-0.391-0.391-0.391-1.023,0-1.414   s1.023-0.391,1.414,0l18,18c0.391,0.391,0.391,1.023,0,1.414C52.512,52.902,52.256,53,52,53z" data-original="#26B99A" class="active-path" data-old_color="#111111" fill="#101010"/>
	<path d="M18.999,19.999c-0.256,0-0.512-0.098-0.707-0.293L0.293,1.707c-0.391-0.391-0.391-1.023,0-1.414   s1.023-0.391,1.414,0l17.999,17.999c0.391,0.391,0.391,1.023,0,1.414C19.51,19.901,19.254,19.999,18.999,19.999z" data-original="#26B99A" class="active-path" data-old_color="#111111" fill="#101010"/>
	<path d="M13,2H1C0.448,2,0,1.552,0,1s0.448-1,1-1h12c0.552,0,1,0.448,1,1S13.552,2,13,2z" data-original="#26B99A" class="active-path" data-old_color="#111111" fill="#101010"/>
	<path d="M1,14c-0.552,0-1-0.448-1-1V1c0-0.552,0.448-1,1-1s1,0.448,1,1v12C2,13.552,1.552,14,1,14z" data-original="#26B99A" class="active-path" data-old_color="#111111" fill="#101010"/>
	<path d="M52,53H40c-0.552,0-1-0.448-1-1s0.448-1,1-1h12c0.552,0,1,0.448,1,1S52.552,53,52,53z" data-original="#26B99A" class="active-path" data-old_color="#111111" fill="#101010"/>
	<path d="M52,53c-0.552,0-1-0.448-1-1V40c0-0.552,0.448-1,1-1s1,0.448,1,1v12C53,52.552,52.552,53,52,53z" data-original="#26B99A" class="active-path" data-old_color="#111111" fill="#101010"/>
	<path d="M1,53c-0.552,0-1-0.448-1-1V40c0-0.552,0.448-1,1-1s1,0.448,1,1v12C2,52.552,1.552,53,1,53z" data-original="#26B99A" class="active-path" data-old_color="#111111" fill="#101010"/>
	<path d="M13,53H1c-0.552,0-1-0.448-1-1s0.448-1,1-1h12c0.552,0,1,0.448,1,1S13.552,53,13,53z" data-original="#26B99A" class="active-path" data-old_color="#111111" fill="#101010"/>
	<path d="M52,14c-0.552,0-1-0.448-1-1V1c0-0.552,0.448-1,1-1s1,0.448,1,1v12C53,13.552,52.552,14,52,14z" data-original="#26B99A" class="active-path" data-old_color="#111111" fill="#101010"/>
	<path d="M52,2H40c-0.552,0-1-0.448-1-1s0.448-1,1-1h12c0.552,0,1,0.448,1,1S52.552,2,52,2z" data-original="#26B99A" class="active-path" data-old_color="#111111" fill="#101010"/>
	<path d="M52,2H40c-0.552,0-1-0.448-1-1s0.448-1,1-1h12c0.552,0,1,0.448,1,1S52.552,2,52,2z" data-original="#26B99A" class="active-path" data-old_color="#111111" fill="#101010"/>
</g></g> </svg>
